# xmcd CD database file
#
# Track frame offsets:
#	150
#	12610
#	39597
#	53205
#	69005
#	81631
#	96110
#	110042
#	126735
#	142228
#	158656
#	171737
#	183365
#	196930
#	210761
#	223124
#	258341
#	277294
#	293869
#	309003
#
# Disc length: 4366 seconds
#
# Revision: 0
# Processed by: cddbd v1.5.1PL0 Copyright (c) Steve Scherf et al.
# Submitted via: CDex 1.50
#
DISCID=3a110c14
DTITLE=Lester Young - BD Jazz 1
DYEAR=1900
DGENRE=Jazz
TTITLE0=Count Every Star
TTITLE1=Ad Lib Blues
TTITLE2=Thou Swell
TTITLE3=On the Sunny Side of the Street
TTITLE4=Undercover Girl Blues
TTITLE5=Septermber in the Rain
TTITLE6=Frenesi
TTITLE7=I Can't Get Started
TTITLE8=I can't Give You Anything But Love
TTITLE9=Stardust
TTITLE10=A Foggy Day
TTITLE11=Lester Swings
TTITLE12=Down 'n' Adam
TTITLE13=Too Marvelous for Words
TTITLE14=Little Pee Blues
TTITLE15=Tea for Two
TTITLE16=Mean to Me
TTITLE17=Pete's Café
TTITLE18=Deed I Do
TTITLE19=Peg'o My Heart
EXTD=
EXTT0=
EXTT1=
EXTT2=
EXTT3=
EXTT4=
EXTT5=
EXTT6=
EXTT7=
EXTT8=
EXTT9=
EXTT10=
EXTT11=
EXTT12=
EXTT13=
EXTT14=
EXTT15=
EXTT16=
EXTT17=
EXTT18=
EXTT19=
PLAYORDER=
